<?xml version="1.0" standalone="no"?>
<!DOCTYPE svg PUBLIC "-//W3C//DTD SVG 20010904//EN"
 "http://www.w3.org/TR/2001/REC-SVG-20010904/DTD/svg10.dtd">
<svg version="1.0" xmlns="http://www.w3.org/2000/svg"
 width="512.000000pt" height="512.000000pt" viewBox="0 0 512.000000 512.000000"
 preserveAspectRatio="xMidYMid meet">

<g transform="translate(0.000000,512.000000) scale(0.100000,-0.100000)"
fill="#000000" stroke="none">
<path d="M1644 4289 c-107 -13 -178 -53 -219 -123 -33 -56 -44 -167 -34 -356
7 -151 23 -235 63 -346 l24 -66 -54 -83 c-90 -138 -143 -275 -173 -442 l-17
-95 -37 56 c-21 31 -52 66 -70 76 -73 45 -172 11 -216 -75 -23 -43 -26 -62
-26 -145 1 -100 20 -175 69 -269 l23 -43 -49 -49 c-28 -28 -63 -78 -81 -117
-30 -63 -32 -74 -32 -177 0 -108 1 -113 38 -187 37 -76 119 -166 175 -191 15
-7 21 -17 18 -26 -49 -146 -58 -193 -63 -312 -5 -119 -4 -128 16 -148 26 -26
62 -27 84 -3 13 14 17 39 17 103 0 97 12 177 41 265 l20 61 43 -4 c35 -4 48
-1 65 16 21 21 27 56 13 79 -5 7 -38 20 -74 30 -252 70 -355 310 -217 504 12
16 46 45 75 64 72 46 77 69 31 137 -49 74 -65 107 -82 179 -20 87 -19 160 3
188 26 32 44 18 95 -68 125 -215 202 -239 314 -100 65 82 117 110 203 112 80
1 79 -19 -4 -103 -59 -60 -68 -73 -75 -119 -9 -59 1 -137 23 -179 8 -15 46
-71 85 -123 82 -111 106 -170 98 -245 -7 -66 -23 -98 -88 -172 -89 -100 -91
-108 -87 -372 3 -209 5 -231 22 -250 23 -25 68 -27 91 -5 14 14 15 46 13 250
-2 151 1 237 7 243 8 7 27 -1 65 -26 71 -48 246 -134 338 -167 125 -44 259
-74 487 -107 304 -43 505 -44 669 -3 29 7 29 7 23 -32 -3 -21 -20 -104 -37
-184 -17 -80 -30 -158 -28 -175 5 -54 83 -71 109 -24 22 43 81 355 83 440 1
85 1 86 -45 160 -73 120 -83 165 -52 254 13 39 41 75 130 167 132 135 155 178
155 275 0 61 -4 69 -51 140 -28 41 -51 81 -51 89 0 20 37 18 106 -6 73 -26
107 -57 150 -142 38 -76 64 -98 112 -98 56 0 99 28 191 127 65 69 92 92 104
87 26 -10 30 -46 13 -116 -24 -93 -60 -159 -127 -233 -32 -36 -59 -74 -59 -86
0 -11 23 -41 50 -68 69 -67 95 -126 95 -221 0 -93 -19 -134 -95 -211 -64 -65
-132 -95 -237 -105 -78 -8 -93 -16 -93 -53 0 -44 25 -69 73 -73 l42 -3 13 -75
c14 -80 10 -210 -9 -286 -15 -59 5 -94 56 -94 44 0 60 24 76 114 11 66 7 288
-6 346 -5 23 0 27 51 50 79 33 176 125 214 204 72 147 59 318 -35 440 l-33 44
40 53 c51 68 71 107 97 193 36 117 24 213 -36 272 -18 18 -47 36 -65 39 l-33
6 3 188 c4 198 -9 316 -46 425 l-18 52 73 190 c102 265 118 326 117 454 -1
196 -66 335 -185 396 -91 46 -221 28 -347 -48 -66 -40 -323 -232 -415 -310
l-67 -57 -48 14 c-238 71 -568 89 -805 45 l-57 -11 -78 78 c-127 127 -311 251
-422 283 -81 23 -148 29 -226 19z m2436 -146 c20 -21 48 -65 61 -98 20 -51 24
-76 23 -175 0 -112 -2 -119 -52 -263 -29 -82 -60 -163 -70 -182 l-17 -33 -62
73 -61 73 13 38 c18 51 19 126 1 168 -18 43 -61 76 -100 76 -35 0 -144 -48
-165 -73 -7 -10 -18 -17 -24 -17 -6 0 -55 19 -110 42 l-99 42 38 34 c62 53
293 226 357 267 75 47 120 63 181 64 43 1 52 -3 86 -36z m-2226 1 c58 -20 193
-109 290 -191 70 -59 89 -83 64 -83 -7 0 -58 -18 -113 -40 l-100 -40 -38 45
c-49 57 -86 77 -149 79 -44 1 -53 -3 -79 -32 -33 -37 -37 -77 -16 -179 l13
-62 -78 -65 -78 -65 -14 52 c-25 88 -35 165 -42 332 -7 171 -2 196 43 237 44
40 198 46 297 12z m1196 -353 c575 -128 884 -355 970 -711 26 -111 35 -283 22
-443 l-11 -128 -66 -79 c-37 -44 -70 -80 -74 -80 -4 0 -13 18 -20 39 -18 62
-89 133 -178 177 -70 35 -86 39 -155 39 -74 0 -79 -1 -110 -33 -30 -29 -33
-38 -32 -90 0 -48 7 -71 47 -145 26 -49 47 -98 47 -108 0 -39 -34 -85 -136
-190 -125 -128 -155 -183 -162 -301 -5 -90 9 -157 44 -211 14 -21 22 -42 19
-46 -11 -19 -155 -35 -290 -34 -135 1 -392 32 -570 69 -159 33 -326 95 -470
176 -116 65 -111 58 -81 120 37 75 50 163 36 241 -15 79 -44 138 -119 234
-105 136 -110 194 -27 282 85 92 106 168 63 232 -43 65 -124 84 -232 55 -64
-17 -139 -50 -172 -76 -14 -11 -28 -19 -30 -17 -8 8 20 155 44 232 88 280 271
490 551 633 160 82 341 144 517 176 121 23 448 15 575 -13z"/>
<path d="M2150 3069 c-92 -19 -110 -151 -25 -179 43 -14 122 -6 145 15 38 35
32 124 -11 151 -23 14 -75 20 -109 13z"/>
<path d="M3091 3004 c-26 -21 -31 -33 -31 -69 0 -62 22 -83 98 -96 68 -10 90
-4 116 33 20 28 20 61 1 101 -29 62 -128 78 -184 31z"/>
<path d="M2591 2700 c-47 -11 -114 -61 -125 -92 -14 -40 14 -78 57 -78 18 0
39 6 46 13 10 10 11 3 5 -33 -11 -68 -21 -88 -55 -109 -72 -44 -193 -35 -269
20 -22 16 -50 29 -63 29 -64 0 -84 -74 -31 -117 41 -33 124 -71 173 -79 33 -5
45 -13 57 -36 21 -41 82 -107 115 -123 50 -27 111 -35 182 -25 84 12 149 45
207 104 l44 46 86 0 c143 0 193 27 176 95 -10 38 -41 48 -119 37 -134 -18
-271 20 -335 92 -44 50 -43 74 4 72 28 -1 41 5 57 26 20 26 20 27 0 65 -35 68
-135 112 -212 93z m177 -429 c38 -16 35 -22 -23 -50 -64 -30 -153 -31 -194 -2
-40 28 -39 44 2 59 18 6 48 24 67 40 l34 29 41 -32 c23 -17 56 -37 73 -44z"/>
<path d="M1285 2242 c-66 -32 -80 -54 -80 -131 0 -81 19 -122 91 -200 84 -91
211 -148 259 -117 57 38 36 94 -47 122 -85 28 -178 126 -178 189 0 23 4 25 41
25 23 0 67 -12 100 -26 69 -31 105 -27 120 13 16 43 -3 70 -74 103 -84 39
-177 48 -232 22z"/>
<path d="M3645 1964 c-11 -3 -39 -10 -63 -16 -65 -17 -92 -69 -56 -109 14 -15
29 -17 117 -13 59 3 108 1 116 -4 35 -24 -47 -121 -132 -157 -20 -8 -56 -15
-81 -15 -36 0 -48 -5 -65 -26 -26 -34 -26 -45 1 -79 20 -26 25 -27 81 -21 143
15 303 140 331 259 17 72 -30 147 -102 166 -50 13 -123 20 -147 15z"/>
</g>
</svg>
