<?xml version="1.0" encoding="UTF-8"?>
<!DOCTYPE svg PUBLIC "-//W3C//DTD SVG 1.1//EN" "http://www.w3.org/Graphics/SVG/1.1/DTD/svg11.dtd">
<svg xmlns="http://www.w3.org/2000/svg" version="1.1" width="600px" height="600px" style="shape-rendering:geometricPrecision; text-rendering:geometricPrecision; image-rendering:optimizeQuality; fill-rule:evenodd; clip-rule:evenodd" xmlns:xlink="http://www.w3.org/1999/xlink">
<g><path style="opacity:1" fill="#fefefe" d="M -0.5,-0.5 C 199.5,-0.5 399.5,-0.5 599.5,-0.5C 599.5,199.5 599.5,399.5 599.5,599.5C 399.5,599.5 199.5,599.5 -0.5,599.5C -0.5,399.5 -0.5,199.5 -0.5,-0.5 Z"/></g>
<g><path style="opacity:1" fill="#151515" d="M 441.5,148.5 C 458.557,147.388 467.724,155.388 469,172.5C 473.518,205.374 470.018,237.374 458.5,268.5C 459.635,274.072 461.469,279.406 464,284.5C 480.292,290.816 495.792,298.649 510.5,308C 520.97,315.445 528.137,325.279 532,337.5C 533.162,350.681 529.162,362.015 520,371.5C 507.722,382.396 493.889,390.896 478.5,397C 468.13,400.401 457.796,403.901 447.5,407.5C 447.697,431.694 435.697,445.694 411.5,449.5C 403,448.416 395.666,444.916 389.5,439C 384.456,433.624 379.789,427.958 375.5,422C 367.848,422.309 360.181,422.309 352.5,422C 350.78,418.914 351.447,416.581 354.5,415C 359.866,414.677 365.199,414.177 370.5,413.5C 367.285,391.75 375.618,376.583 395.5,368C 400.885,366.55 402.552,368.383 400.5,373.5C 380.762,381.311 374.262,395.311 381,415.5C 386.103,423.601 392.27,430.768 399.5,437C 418.895,444.22 432.062,438.053 439,418.5C 439.518,402.537 434.184,388.871 423,377.5C 420.453,373.085 421.62,370.918 426.5,371C 431.363,374.23 435.196,378.396 438,383.5C 440.528,388.751 442.861,394.084 445,399.5C 456.207,396.097 467.207,392.097 478,387.5C 475.068,351.174 467.401,315.841 455,281.5C 449.464,269.172 442.964,257.506 435.5,246.5C 436.696,243.862 438.696,243.029 441.5,244C 445.045,248.923 448.712,253.756 452.5,258.5C 461.97,234.418 465.47,209.418 463,183.5C 462.42,176.35 461.086,169.35 459,162.5C 456.647,158.154 452.98,155.821 448,155.5C 418.701,161.031 392.035,172.365 368,189.5C 367.312,190.332 367.479,190.998 368.5,191.5C 382.686,196.926 396.019,203.926 408.5,212.5C 409.833,214.5 409.833,216.5 408.5,218.5C 407.554,218.987 406.554,219.32 405.5,219.5C 361.962,192.12 314.629,182.12 263.5,189.5C 259.515,188.506 256.848,186.173 255.5,182.5C 289.618,176.981 323.284,178.981 356.5,188.5C 381.926,168.953 410.259,155.62 441.5,148.5 Z"/></g>
<g><path style="opacity:1" fill="#151515" d="M 148.5,154.5 C 166.233,155.016 183.233,158.85 199.5,166C 213.82,172.493 227.82,179.493 241.5,187C 243.5,189 245.5,191 247.5,193C 230.354,196.826 214.021,202.826 198.5,211C 195.094,212.24 193.427,211.073 193.5,207.5C 193.686,205.42 194.686,203.92 196.5,203C 206.344,197.412 216.678,192.912 227.5,189.5C 205.486,174.77 181.32,165.437 155,161.5C 150.592,161.537 146.925,163.204 144,166.5C 139.648,174.259 137.314,182.592 137,191.5C 135.824,213.038 137.324,234.371 141.5,255.5C 146.471,248.395 151.804,241.562 157.5,235C 160.771,234.308 162.771,235.641 163.5,239C 137.822,270.969 121.989,307.469 116,348.5C 113.993,361.09 112.826,373.757 112.5,386.5C 118.691,388.259 124.691,390.592 130.5,393.5C 134.052,386.738 137.885,380.071 142,373.5C 144.074,371.548 146.241,369.715 148.5,368C 153.667,366.5 155.5,368.333 154,373.5C 136.261,390.118 132.594,409.451 143,431.5C 151.997,441.712 162.831,444.212 175.5,439C 191.781,425.158 196.948,407.991 191,387.5C 187.721,380.6 182.555,375.6 175.5,372.5C 174.233,370.629 174.233,368.796 175.5,367C 178.303,366.245 180.97,366.578 183.5,368C 198.275,377.769 204.275,391.602 201.5,409.5C 234.556,415.305 267.89,418.139 301.5,418C 303.036,419.599 303.536,421.433 303,423.5C 297.914,424.806 292.58,425.473 287,425.5C 257.307,424.844 227.807,422.178 198.5,417.5C 195.073,430.849 187.407,441.016 175.5,448C 149.998,452.505 134.831,442.005 130,416.5C 129.741,411.074 129.574,405.74 129.5,400.5C 114.554,395.133 100.554,387.966 87.5,379C 60.5877,357.743 59.5877,335.409 84.5,312C 96.2246,302.465 109.225,294.965 123.5,289.5C 128.097,282.138 131.764,274.304 134.5,266C 128.853,238.705 127.353,211.205 130,183.5C 131.245,173.345 135.412,164.678 142.5,157.5C 144.78,156.864 146.78,155.864 148.5,154.5 Z"/></g>
<g><path style="opacity:1" fill="#151515" d="M 207.5,292.5 C 218.085,293.602 223.085,299.602 222.5,310.5C 223.408,320.706 219.241,327.706 210,331.5C 206.329,330.498 203.329,328.498 201,325.5C 196.467,315.585 196.8,305.918 202,296.5C 203.793,294.975 205.626,293.642 207.5,292.5 Z"/></g>
<g><path style="opacity:1" fill="#141414" d="M 355.5,296.5 C 365.349,295.838 370.849,300.505 372,310.5C 372.724,316.313 372.058,321.98 370,327.5C 365.733,334.876 359.899,336.376 352.5,332C 346.09,321.307 345.923,310.474 352,299.5C 353.518,298.837 354.685,297.837 355.5,296.5 Z"/></g>
<g><path style="opacity:1" fill="#151515" d="M 250.5,316.5 C 254.698,316.892 256.532,319.225 256,323.5C 258.253,330.106 262.753,332.273 269.5,330C 272.531,327.441 274.698,324.274 276,320.5C 278.401,319.398 280.901,319.231 283.5,320C 287.966,330.9 295.633,334.066 306.5,329.5C 307.975,326.659 309.141,323.659 310,320.5C 311.726,319.424 313.559,319.257 315.5,320C 318.514,330.668 314.514,337.001 303.5,339C 294.139,339.742 285.973,336.909 279,330.5C 271.816,339.052 263.316,340.552 253.5,335C 248.976,330.405 247.142,324.905 248,318.5C 248.995,317.934 249.828,317.267 250.5,316.5 Z"/></g>
</svg>
