<?xml version="1.0" standalone="no"?>
<!DOCTYPE svg PUBLIC "-//W3C//DTD SVG 20010904//EN"
 "http://www.w3.org/TR/2001/REC-SVG-20010904/DTD/svg10.dtd">
<svg version="1.0" xmlns="http://www.w3.org/2000/svg"
 width="450.000000pt" height="450.000000pt" viewBox="0 0 450.000000 450.000000"
 preserveAspectRatio="xMidYMid meet">

<g transform="translate(0.000000,450.000000) scale(0.100000,-0.100000)"
fill="#000000" stroke="none">
<path d="M1323 2595 c-11 -35 -8 -46 84 -302 l15 -43 64 0 c35 0 64 2 64 5 0
3 -20 56 -44 118 -24 61 -47 123 -51 137 -4 14 -16 46 -27 73 -19 44 -23 47
-58 47 -33 0 -38 -3 -47 -35z"/>
<path d="M1931 2604 c23 -25 24 -30 24 -190 l0 -164 62 0 61 0 4 171 c3 166 4
171 27 190 23 19 23 19 -90 19 l-112 0 24 -26z"/>
<path d="M2438 2614 c28 -19 23 -41 -20 -99 -24 -33 -21 -31 19 12 26 28 66
63 87 77 l39 26 -74 0 c-70 0 -72 -1 -51 -16z"/>
<path d="M2778 2610 c21 -20 22 -29 22 -191 l0 -170 68 3 67 3 3 188 2 187
-92 0 -92 0 22 -20z"/>
<path d="M3109 2613 c50 -26 71 -60 84 -136 11 -65 3 -158 -18 -210 -7 -16 -2
-18 46 -15 50 3 55 6 83 45 21 30 31 58 34 97 11 129 -70 221 -207 233 l-56 5
34 -19z"/>
<path d="M1256 2425 c-3 -9 -6 -22 -5 -28 0 -7 5 -1 10 12 5 13 8 26 5 28 -2
2 -6 -3 -10 -12z"/>
<path d="M2334 2418 l-19 -23 23 19 c21 18 27 26 19 26 -2 0 -12 -10 -23 -22z"/>
<path d="M2221 2297 l-34 -42 43 -3 c52 -4 57 1 36 32 -8 14 -13 32 -10 40 9
24 2 19 -35 -27z"/>
<path d="M2163 2115 c0 -22 2 -30 4 -17 2 12 2 30 0 40 -3 9 -5 -1 -4 -23z"/>
<path d="M2621 2124 c0 -11 3 -14 6 -6 3 7 2 16 -1 19 -3 4 -6 -2 -5 -13z"/>
<path d="M1865 2080 c-16 -7 -17 -9 -3 -9 9 -1 20 4 23 9 7 11 7 11 -20 0z"/>
<path d="M1071 1897 c-21 -62 -39 -88 -71 -100 -8 -3 21 -5 65 -5 44 0 69 3
55 5 -53 10 -62 38 -35 113 8 24 13 45 11 47 -2 2 -14 -25 -25 -60z"/>
<path d="M1530 1955 c0 -3 7 -22 15 -42 8 -19 15 -50 15 -68 0 -34 -12 -42
-85 -58 -11 -3 0 -3 24 -1 24 2 94 4 155 5 72 0 104 3 90 9 -14 5 -32 34 -52
82 l-31 73 -65 3 c-36 2 -66 0 -66 -3z"/>
<path d="M1950 1896 c0 -72 -9 -85 -72 -101 -30 -8 -1 -10 135 -10 156 0 170
1 132 13 -49 14 -65 43 -65 118 l0 44 -65 0 -65 0 0 -64z"/>
<path d="M2359 1918 c76 -107 99 -121 207 -128 45 -3 80 -2 77 3 -2 4 -10 7
-17 7 -16 0 -74 62 -112 120 l-27 40 -79 0 -79 0 30 -42z"/>
<path d="M2800 1897 c0 -72 -11 -88 -70 -106 l-35 -11 34 5 c18 3 88 5 155 6
66 0 114 3 106 6 -40 15 -50 35 -50 100 l0 63 -70 0 -70 0 0 -63z"/>
<path d="M3176 1918 c62 -101 105 -128 201 -128 l68 0 -32 20 c-18 11 -52 49
-75 84 l-43 66 -73 0 -72 0 26 -42z"/>
<path d="M948 1783 c6 -2 18 -2 25 0 6 3 1 5 -13 5 -14 0 -19 -2 -12 -5z"/>
<path d="M1188 1783 c7 -3 16 -2 19 1 4 3 -2 6 -13 5 -11 0 -14 -3 -6 -6z"/>
<path d="M3018 1783 c6 -2 18 -2 25 0 6 3 1 5 -13 5 -14 0 -19 -2 -12 -5z"/>
</g>
</svg>
