<?xml version="1.0" standalone="no"?>
<!DOCTYPE svg PUBLIC "-//W3C//DTD SVG 20010904//EN"
 "http://www.w3.org/TR/2001/REC-SVG-20010904/DTD/svg10.dtd">
<svg version="1.0" xmlns="http://www.w3.org/2000/svg"
 width="62.000000pt" height="62.000000pt" viewBox="0 0 62.000000 62.000000"
 preserveAspectRatio="xMidYMid meet">
<metadata>
Created by potrace 1.10, written by Peter Selinger 2001-2011
</metadata>
<g transform="translate(0.000000,62.000000) scale(0.100000,-0.100000)"
fill="#000000" stroke="none">
<path d="M252 437 c-18 -5 -48 -27 -67 -49 -29 -32 -35 -46 -35 -84 0 -49 25
-104 48 -104 9 0 7 8 -7 26 -25 32 -28 92 -6 134 42 81 215 94 255 21 27 -52
-5 -137 -63 -167 -33 -18 -98 -14 -122 6 -20 17 -19 49 4 83 15 23 20 25 24
13 8 -20 34 -20 70 -2 23 13 27 13 27 0 0 -8 5 -14 11 -14 6 0 8 9 3 23 -9 31
-12 32 -32 14 -24 -22 -72 -23 -72 -2 0 26 -18 17 -45 -22 -31 -46 -32 -73 -2
-100 56 -52 153 -32 200 39 79 123 -36 235 -191 185z"/>
</g>
</svg>
